<?xml version="1.0" encoding="utf-8"?>
<!-- Generator: Adobe Illustrator 15.0.0, SVG Export Plug-In . SVG Version: 6.00 Build 0)  -->
<!DOCTYPE svg PUBLIC "-//W3C//DTD SVG 1.1//EN" "http://www.w3.org/Graphics/SVG/1.1/DTD/svg11.dtd">
<svg version="1.1" id="Ebene_1" xmlns="http://www.w3.org/2000/svg" xmlns:xlink="http://www.w3.org/1999/xlink" x="0px" y="0px"
	 width="100px" height="100px" viewBox="0 0 100 100" enable-background="new 0 0 100 100" xml:space="preserve">
<defs>
	
	
		<inkscape:perspective  inkscape:persp3d-origin="372.04724 : 350.78739 : 1" inkscape:vp_x="0 : 526.18109 : 1" inkscape:vp_y="0 : 1000 : 0" inkscape:vp_z="744.09448 : 526.18109 : 1" sodipodi:type="inkscape:persp3d" id="perspective2969">
		</inkscape:perspective>
</defs>
<sodipodi:namedview  inkscape:document-units="px" borderopacity="1.0" pagecolor="#ffffff" inkscape:pageshadow="2" inkscape:zoom="0.77254772" inkscape:cx="372.04724" bordercolor="#666666" inkscape:pageopacity="0.0" inkscape:current-layer="layer1" inkscape:cy="526.18109" showgrid="false" inkscape:window-height="1014" id="base" inkscape:window-width="1920" inkscape:window-x="-4" inkscape:window-y="-4" inkscape:window-maximized="1" showguides="true" inkscape:guide-bbox="true">
	</sodipodi:namedview>
<g id="layer1" inkscape:label="Calque 1" inkscape:groupmode="layer">
	<g id="g4171" transform="matrix(6.2922077,0,0,6.2922077,655.84214,117.25018)">
		<rect id="rect4087" x="-99.302" y="-12.707" fill="#FCEF3C" stroke="#000000" stroke-width="0.35" width="3.355" height="4.721"/>
		<g id="g4079" transform="translate(-88.081181,-13.345633)">
			
				<path id="path3207" sodipodi:nodetypes="cccccc" inkscape:connector-curvature="0" fill="#FCEF3C" stroke="#000000" stroke-width="0.35" d="
				M-6.478,3.723c2.016,0.097,5.666-0.164,6.047,0c0.309,0.176,0.152,0.85-0.078,0.975c-0.514,0.336-3.798,0.464-5.696,0.644
				C-7.01,5.506-7.451,5.525-8.019,5.595C-8.047,4.714-7.544,4.084-6.478,3.723L-6.478,3.723z"/>
		</g>
		<g id="g4043" transform="translate(-87.180183,-13.484715)">
			
				<path id="path3977" sodipodi:nodetypes="ccccccc" inkscape:connector-curvature="0" fill="#FCEF3C" stroke="#000000" stroke-width="0.35" d="
				M-9.993,3.781c0.31,0.121,2.313,0.147,3.901-0.039c0.191-0.063,0.406-0.093,0.504-0.308c0.181-0.415,0.214-0.83-0.095-1.233
				c-0.128-0.072-0.256-0.177-0.585-0.176C-7.465,2.26-8.681,2.461-9.778,2.669C-10.435,2.86-10.305,3.721-9.993,3.781z"/>
		</g>
		<g id="g4049" transform="translate(-87.667298,-13.780852)">
			
				<path id="path3979" sodipodi:nodetypes="ccccc" inkscape:connector-curvature="0" fill="#FCEF3C" stroke="#000000" stroke-width="0.35" d="
				M-9.745,2.996c-0.639,0.035-0.873-0.764-0.585-0.995c0.251-0.171,2.951-1.225,3.531-1.17c0.683,0.022,1.21,0.773,0.8,1.424
				C-6.434,2.715-8.925,2.827-9.745,2.996L-9.745,2.996z"/>
			
				<path id="path4035_2_" sodipodi:nodetypes="cc" inkscape:connector-curvature="0" fill="#FCEF3C" stroke="#000000" stroke-width="0.35" d="
				M-8.664,2.462"/>
			
				<path id="path4035_1_" sodipodi:nodetypes="cc" inkscape:connector-curvature="0" fill="#FCEF3C" stroke="#000000" stroke-width="0.35" d="
				M-8.86,1.994"/>
		</g>
		<g id="g4057" transform="translate(-87.547425,-12.839448)">
			
				<path id="path3981" sodipodi:nodetypes="cccccccccccccccccccc" inkscape:connector-curvature="0" fill="#FCEF3C" stroke="#000000" stroke-width="0.35" d="
				M-8.061-1.042c-0.67,0.221-2.085,0.735-2.653,1.346c-0.099,0.184-0.107,0.554,0.332,0.605c1.047-0.338,2.938-0.767,3.141-1.014
				c0.193-0.353,0.026-0.961-0.722-1.229c-0.937-0.266-3.213-0.203-3.687-0.058c-0.507,0.081-1.793,0.974-2.283,1.327
				c-0.055,0.209-1.749-0.051-2.633-0.078c0.214,1.836-0.078,2.913-0.117,4.37c1.122-0.072,2.846-0.373,3.375-0.234
				c0.448,0.208,0.78,0.494,1.151,0.78c0.573,0.377,1.409,0.578,2.126,0.878C-9.726,5.73-9.42,5.803-9.115,5.63
				c0.755-0.526,1.824-1.6,1.95-1.814c0.125-0.351,0.096-1.714,0.059-2.36c-0.515-0.103-0.742,0.001-0.897,0.156
				C-8.415,2.019-8.509,2.56-8.666,3.172c-0.386,0.293-0.771,0.585-0.956,0.878c0.071-0.642-0.131-1.202-0.332-1.6
				c-0.639-0.897-1.272-0.803-1.872-1.131"/>
		</g>
	</g>
</g>
</svg>
